<svg width="123" height="146" viewBox="0 0 123 146" fill="none" xmlns="http://www.w3.org/2000/svg">
<path d="M4.00001 47.5C13.8053 91.1783 51.4211 100.292 63.7258 117.339C64.4086 118.285 67.9936 117.808 68.3655 116.702C73.6534 100.976 93.5652 78.1465 115.152 55.9279C117.324 53.6928 118.857 50.8457 118.788 47.7302C118.26 23.7585 91.8088 -20.1489 61 34C50 -20 -0.499993 6.99997 4.00001 47.5Z" stroke="#880000" stroke-width="7"/>
<path d="M70.4931 141.28C70.3716 139.351 68.7092 137.885 66.78 138.007C64.8509 138.128 63.3854 139.791 63.5069 141.72L70.4931 141.28ZM63.5005 122.06C63.7327 135.529 63.7294 140.288 63.6762 141.686C63.6732 141.764 63.6703 141.823 63.6679 141.865C63.6654 141.909 63.6638 141.926 63.6641 141.923C63.6643 141.92 63.6655 141.908 63.6679 141.887C63.6703 141.868 63.6751 141.831 63.6834 141.781C63.691 141.735 63.7065 141.648 63.7342 141.537C63.7563 141.449 63.8162 141.222 63.943 140.946C63.993 140.837 64.3892 139.914 65.4527 139.34C66.1193 138.98 66.9646 138.808 67.8487 138.999C68.6545 139.173 69.2005 139.584 69.497 139.861C70.028 140.357 70.2565 140.889 70.3039 140.997C70.3893 141.191 70.4371 141.349 70.458 141.422C70.5016 141.574 70.5213 141.687 70.5251 141.709C70.5287 141.729 70.5311 141.744 70.5322 141.752C70.5329 141.756 70.5333 141.759 70.5336 141.761C70.5339 141.763 70.534 141.764 70.534 141.764C70.5341 141.764 70.5337 141.762 70.5331 141.756C70.5325 141.751 70.5316 141.744 70.5306 141.735C70.5286 141.716 70.5262 141.693 70.5236 141.666C70.5182 141.611 70.5129 141.549 70.5081 141.487C70.5033 141.427 70.4994 141.373 70.4967 141.334C70.4954 141.315 70.4944 141.3 70.4938 141.29C70.4934 141.286 70.4932 141.282 70.4931 141.281C70.4931 141.28 70.493 141.279 70.493 141.279C70.493 141.279 70.493 141.279 70.493 141.279C70.493 141.279 70.493 141.28 70.4931 141.28C70.4931 141.28 70.4931 141.28 67 141.5C63.5069 141.72 63.5069 141.72 63.507 141.721C63.507 141.721 63.507 141.721 63.507 141.721C63.5071 141.722 63.5071 141.723 63.5072 141.724C63.5073 141.725 63.5074 141.727 63.5076 141.73C63.5079 141.735 63.5083 141.742 63.5089 141.75C63.51 141.767 63.5115 141.79 63.5135 141.818C63.5173 141.874 63.5229 141.951 63.5299 142.039C63.5422 142.195 63.5645 142.459 63.5962 142.694C63.6049 142.759 63.6411 143.044 63.7285 143.349C63.7542 143.439 63.8068 143.611 63.897 143.817C63.9493 143.935 64.1826 144.475 64.7184 144.976C65.0173 145.255 65.5657 145.668 66.3739 145.842C67.2604 146.033 68.1081 145.861 68.7772 145.5C69.8455 144.923 70.2463 143.993 70.3012 143.874C70.5194 143.4 70.5814 142.972 70.5888 142.927C70.613 142.781 70.6267 142.651 70.635 142.561C70.652 142.375 70.6629 142.166 70.6711 141.953C70.7335 140.314 70.7302 135.323 70.4995 121.94L63.5005 122.06Z" fill="#880000"/>
<path d="M107 100C107 100 100.25 74.5588 107 64.5" stroke="#880000" stroke-width="7" stroke-linecap="round"/>
<path d="M84 114C84 114 80.25 97.0588 87 87" stroke="#880000" stroke-width="7" stroke-linecap="round"/>
<path d="M60 113L67 126.5L71 110.5" stroke="#880000" stroke-width="7" stroke-linecap="round"/>
</svg>
